<svg xmlns="http://www.w3.org/2000/svg" width="720" height="560" viewBox="0 0 720 560" role="img" aria-label="404">
  <defs>
    <linearGradient id="g" x1="0" y1="0" x2="1" y2="1">
      <stop offset="0" stop-color="#0B0E14"/>
      <stop offset="1" stop-color="#B91C2B"/>
    </linearGradient>
    <radialGradient id="rg" cx="0.25" cy="0.2" r="0.9">
      <stop offset="0" stop-color="#ffffff" stop-opacity="0.16"/>
      <stop offset="1" stop-color="#ffffff" stop-opacity="0"/>
    </radialGradient>
  </defs>
  <rect width="720" height="560" fill="url(#g)"/>
  <rect width="720" height="560" fill="url(#rg)"/>
  <circle cx="15" cy="260" r="181" fill="#ffffff" opacity="0.13"/><circle cx="39" cy="499" r="182" fill="#ffffff" opacity="0.09"/><circle cx="661" cy="543" r="67" fill="#ffffff" opacity="0.11"/><circle cx="535" cy="373" r="165" fill="#ffffff" opacity="0.13"/><circle cx="212" cy="181" r="263" fill="#ffffff" opacity="0.12"/><circle cx="480" cy="253" r="87" fill="none" stroke="#B91C2B" stroke-width="2" opacity="0.35"/><circle cx="665" cy="310" r="68" fill="none" stroke="#B91C2B" stroke-width="2" opacity="0.35"/><circle cx="33" cy="106" r="200" fill="none" stroke="#B91C2B" stroke-width="2" opacity="0.35"/>
  <g transform="translate(296 152)">
    <rect x="0" y="0" width="128" height="128" rx="34" fill="#ffffff" opacity="0.08"/>
    <rect x="0" y="0" width="128" height="128" rx="34" fill="none" stroke="#ffffff" stroke-opacity="0.18"/>
    <g transform="translate(32 32) scale(2.66)" fill="none" stroke="#ffffff" stroke-width="1.7" stroke-linecap="round" stroke-linejoin="round" opacity="0.92">
      <path d="M12 2.69l5.66 5.66a8 8 0 1 1-11.31 0z"></path>
      <line x1="12" y1="11" x2="12" y2="17"></line>
      <line x1="9" y1="14" x2="15" y2="14"></line>
    </g>
  </g>
  <text x="40" y="502" font-family="Outfit, Arial, sans-serif" font-size="40" font-weight="700" fill="#ffffff" opacity="0.95">404</text>
  <text x="40" y="534" font-family="'Plus Jakarta Sans', Arial, sans-serif" font-size="23" font-weight="500" fill="#ffffff" opacity="0.55">This vein leads nowhere</text>
</svg>