<svg xmlns="http://www.w3.org/2000/svg" width="800" height="560" viewBox="0 0 800 560" role="img" aria-label="Corporate & Campus Camps">
  <defs>
    <linearGradient id="g" x1="0" y1="0" x2="1" y2="1">
      <stop offset="0" stop-color="#231008"/>
      <stop offset="1" stop-color="#FF6B35"/>
    </linearGradient>
    <radialGradient id="rg" cx="0.25" cy="0.2" r="0.9">
      <stop offset="0" stop-color="#ffffff" stop-opacity="0.16"/>
      <stop offset="1" stop-color="#ffffff" stop-opacity="0"/>
    </radialGradient>
  </defs>
  <rect width="800" height="560" fill="url(#g)"/>
  <rect width="800" height="560" fill="url(#rg)"/>
  <circle cx="443" cy="290" r="99" fill="#ffffff" opacity="0.11"/><circle cx="637" cy="383" r="282" fill="#ffffff" opacity="0.10"/><circle cx="503" cy="226" r="222" fill="#ffffff" opacity="0.10"/><circle cx="371" cy="43" r="199" fill="#ffffff" opacity="0.07"/><circle cx="97" cy="203" r="189" fill="#ffffff" opacity="0.13"/><circle cx="62" cy="335" r="59" fill="none" stroke="#FF6B35" stroke-width="2" opacity="0.35"/><circle cx="685" cy="519" r="180" fill="none" stroke="#FF6B35" stroke-width="2" opacity="0.35"/><circle cx="448" cy="445" r="181" fill="none" stroke="#FF6B35" stroke-width="2" opacity="0.35"/>
  <g transform="translate(336 152)">
    <rect x="0" y="0" width="128" height="128" rx="34" fill="#ffffff" opacity="0.08"/>
    <rect x="0" y="0" width="128" height="128" rx="34" fill="none" stroke="#ffffff" stroke-opacity="0.18"/>
    <g transform="translate(32 32) scale(2.66)" fill="none" stroke="#ffffff" stroke-width="1.7" stroke-linecap="round" stroke-linejoin="round" opacity="0.92">
      <path d="M12 2.69l5.66 5.66a8 8 0 1 1-11.31 0z"></path>
      <line x1="12" y1="11" x2="12" y2="17"></line>
      <line x1="9" y1="14" x2="15" y2="14"></line>
    </g>
  </g>
  <text x="40" y="502" font-family="Outfit, Arial, sans-serif" font-size="40" font-weight="700" fill="#ffffff" opacity="0.95">Corporate & Campus Camps</text>
  <text x="40" y="534" font-family="'Plus Jakarta Sans', Arial, sans-serif" font-size="23" font-weight="500" fill="#ffffff" opacity="0.55">Turnkey camp organisation</text>
</svg>